<mxfile host="app.diagrams.net" modified="2024-07-18T14:26:23.363Z" agent="Mozilla/5.0 (Windows NT 10.0; Win64; x64) AppleWebKit/537.36 (KHTML, like Gecko) Chrome/126.0.0.0 Safari/537.36" etag="xNMuBWsYB6ZhjcnbM9oL" version="24.4.8" type="device">
  <diagram name="Page-1" id="dFms0tfERSB28S1RZzFZ">
    <mxGraphModel dx="1313" dy="1875" grid="1" gridSize="10" guides="1" tooltips="1" connect="1" arrows="1" fold="1" page="1" pageScale="1" pageWidth="827" pageHeight="1169" math="0" shadow="0">
      <root>
        <mxCell id="0" />
        <mxCell id="1" parent="0" />
        <mxCell id="OTJZAKSeOe8hlKdK6fWH-12" value="" style="rounded=0;whiteSpace=wrap;html=1;strokeColor=#ff0000;dashed=1;dashPattern=8 8;" vertex="1" parent="1">
          <mxGeometry x="90" y="229" width="850" height="140" as="geometry" />
        </mxCell>
        <mxCell id="OTJZAKSeOe8hlKdK6fWH-8" value="" style="group" vertex="1" connectable="0" parent="1">
          <mxGeometry x="110" y="-40" width="130" height="210" as="geometry" />
        </mxCell>
        <mxCell id="OTJZAKSeOe8hlKdK6fWH-7" value="" style="rounded=0;whiteSpace=wrap;html=1;dashed=1;dashPattern=8 8;strokeColor=#f90606;" vertex="1" parent="OTJZAKSeOe8hlKdK6fWH-8">
          <mxGeometry width="130" height="210" as="geometry" />
        </mxCell>
        <mxCell id="OTJZAKSeOe8hlKdK6fWH-1" value="" style="shape=actor;whiteSpace=wrap;html=1;" vertex="1" parent="OTJZAKSeOe8hlKdK6fWH-8">
          <mxGeometry x="52" y="14.875" width="32.5" height="52.5" as="geometry" />
        </mxCell>
        <mxCell id="OTJZAKSeOe8hlKdK6fWH-2" value="&lt;font style=&quot;font-size: 15px;&quot;&gt;Browser&lt;/font&gt;" style="ellipse;whiteSpace=wrap;html=1;" vertex="1" parent="OTJZAKSeOe8hlKdK6fWH-8">
          <mxGeometry x="19.5" y="124.25" width="97.5" height="70" as="geometry" />
        </mxCell>
        <mxCell id="OTJZAKSeOe8hlKdK6fWH-3" value="" style="endArrow=classic;html=1;rounded=0;exitX=0.75;exitY=1;exitDx=0;exitDy=0;entryX=0.58;entryY=-0.017;entryDx=0;entryDy=0;entryPerimeter=0;" edge="1" parent="OTJZAKSeOe8hlKdK6fWH-8">
          <mxGeometry width="50" height="50" relative="1" as="geometry">
            <mxPoint x="71.5" y="70" as="sourcePoint" />
            <mxPoint x="71.17499999999993" y="121.30999999999999" as="targetPoint" />
          </mxGeometry>
        </mxCell>
        <mxCell id="OTJZAKSeOe8hlKdK6fWH-4" value="" style="endArrow=none;html=1;rounded=0;exitX=0.75;exitY=1;exitDx=0;exitDy=0;entryX=0.58;entryY=-0.017;entryDx=0;entryDy=0;entryPerimeter=0;startArrow=classic;startFill=1;endFill=0;" edge="1" parent="OTJZAKSeOe8hlKdK6fWH-8">
          <mxGeometry width="50" height="50" relative="1" as="geometry">
            <mxPoint x="63.375" y="70" as="sourcePoint" />
            <mxPoint x="63.375" y="121.625" as="targetPoint" />
          </mxGeometry>
        </mxCell>
        <mxCell id="OTJZAKSeOe8hlKdK6fWH-9" value="Web Server" style="ellipse;whiteSpace=wrap;html=1;" vertex="1" parent="1">
          <mxGeometry x="118" y="260" width="120" height="80" as="geometry" />
        </mxCell>
        <mxCell id="OTJZAKSeOe8hlKdK6fWH-10" value="Application Server" style="ellipse;whiteSpace=wrap;html=1;" vertex="1" parent="1">
          <mxGeometry x="440" y="260" width="120" height="80" as="geometry" />
        </mxCell>
        <mxCell id="OTJZAKSeOe8hlKdK6fWH-11" value="Code Scanner" style="ellipse;whiteSpace=wrap;html=1;" vertex="1" parent="1">
          <mxGeometry x="760" y="255" width="130" height="90" as="geometry" />
        </mxCell>
        <mxCell id="OTJZAKSeOe8hlKdK6fWH-13" value="" style="endArrow=classic;html=1;rounded=0;entryX=0.5;entryY=0;entryDx=0;entryDy=0;exitX=0.5;exitY=1;exitDx=0;exitDy=0;" edge="1" parent="1">
          <mxGeometry width="50" height="50" relative="1" as="geometry">
            <mxPoint x="184.25" y="154.25" as="sourcePoint" />
            <mxPoint x="183.72" y="260" as="targetPoint" />
          </mxGeometry>
        </mxCell>
        <mxCell id="OTJZAKSeOe8hlKdK6fWH-16" value="Request" style="edgeLabel;html=1;align=center;verticalAlign=middle;resizable=0;points=[];rotation=90;" vertex="1" connectable="0" parent="OTJZAKSeOe8hlKdK6fWH-13">
          <mxGeometry x="0.0144" y="1" relative="1" as="geometry">
            <mxPoint as="offset" />
          </mxGeometry>
        </mxCell>
        <mxCell id="OTJZAKSeOe8hlKdK6fWH-15" value="" style="endArrow=none;html=1;rounded=0;entryX=0.5;entryY=0;entryDx=0;entryDy=0;exitX=0.5;exitY=1;exitDx=0;exitDy=0;startArrow=classic;startFill=1;endFill=0;" edge="1" parent="1">
          <mxGeometry width="50" height="50" relative="1" as="geometry">
            <mxPoint x="170.28" y="154" as="sourcePoint" />
            <mxPoint x="170" y="260" as="targetPoint" />
          </mxGeometry>
        </mxCell>
        <mxCell id="OTJZAKSeOe8hlKdK6fWH-17" value="Response" style="edgeLabel;html=1;align=center;verticalAlign=middle;resizable=0;points=[];rotation=90;" vertex="1" connectable="0" parent="OTJZAKSeOe8hlKdK6fWH-15">
          <mxGeometry x="0.195" y="-2" relative="1" as="geometry">
            <mxPoint y="-10" as="offset" />
          </mxGeometry>
        </mxCell>
        <mxCell id="OTJZAKSeOe8hlKdK6fWH-18" value="" style="endArrow=classic;html=1;rounded=0;exitX=1;exitY=0.5;exitDx=0;exitDy=0;entryX=0;entryY=0.5;entryDx=0;entryDy=0;" edge="1" parent="1">
          <mxGeometry width="50" height="50" relative="1" as="geometry">
            <mxPoint x="239" y="290" as="sourcePoint" />
            <mxPoint x="441.00000000000125" y="290" as="targetPoint" />
          </mxGeometry>
        </mxCell>
        <mxCell id="OTJZAKSeOe8hlKdK6fWH-20" value="Request to upload code" style="edgeLabel;html=1;align=center;verticalAlign=middle;resizable=0;points=[];" vertex="1" connectable="0" parent="OTJZAKSeOe8hlKdK6fWH-18">
          <mxGeometry x="-0.0198" relative="1" as="geometry">
            <mxPoint as="offset" />
          </mxGeometry>
        </mxCell>
        <mxCell id="OTJZAKSeOe8hlKdK6fWH-19" value="" style="endArrow=none;html=1;rounded=0;exitX=1;exitY=0.5;exitDx=0;exitDy=0;entryX=0;entryY=0.5;entryDx=0;entryDy=0;startArrow=classic;startFill=1;endFill=0;" edge="1" parent="1">
          <mxGeometry width="50" height="50" relative="1" as="geometry">
            <mxPoint x="238" y="311" as="sourcePoint" />
            <mxPoint x="440.00000000000125" y="311" as="targetPoint" />
          </mxGeometry>
        </mxCell>
        <mxCell id="OTJZAKSeOe8hlKdK6fWH-21" value="Response of it" style="edgeLabel;html=1;align=center;verticalAlign=middle;resizable=0;points=[];" vertex="1" connectable="0" parent="OTJZAKSeOe8hlKdK6fWH-19">
          <mxGeometry x="-0.0814" y="-1" relative="1" as="geometry">
            <mxPoint x="9" as="offset" />
          </mxGeometry>
        </mxCell>
        <mxCell id="OTJZAKSeOe8hlKdK6fWH-22" value="" style="rounded=0;whiteSpace=wrap;html=1;dashed=1;dashPattern=8 8;strokeColor=#fa0505;" vertex="1" parent="1">
          <mxGeometry x="394" y="-30" width="200" height="150" as="geometry" />
        </mxCell>
        <mxCell id="OTJZAKSeOe8hlKdK6fWH-23" value="Web Services" style="ellipse;whiteSpace=wrap;html=1;" vertex="1" parent="1">
          <mxGeometry x="440" y="5" width="120" height="80" as="geometry" />
        </mxCell>
        <mxCell id="OTJZAKSeOe8hlKdK6fWH-24" value="" style="endArrow=classic;html=1;rounded=0;exitX=0.668;exitY=0.973;exitDx=0;exitDy=0;entryX=0.656;entryY=0.003;entryDx=0;entryDy=0;entryPerimeter=0;exitPerimeter=0;" edge="1" parent="1">
          <mxGeometry width="50" height="50" relative="1" as="geometry">
            <mxPoint x="508.1600000000001" y="82.83999999999992" as="sourcePoint" />
            <mxPoint x="506.72" y="260.24" as="targetPoint" />
          </mxGeometry>
        </mxCell>
        <mxCell id="OTJZAKSeOe8hlKdK6fWH-25" value="Request Code Analysis" style="edgeLabel;html=1;align=center;verticalAlign=middle;resizable=0;points=[];rotation=90;" vertex="1" connectable="0" parent="OTJZAKSeOe8hlKdK6fWH-24">
          <mxGeometry x="0.0184" relative="1" as="geometry">
            <mxPoint x="-1" as="offset" />
          </mxGeometry>
        </mxCell>
        <mxCell id="OTJZAKSeOe8hlKdK6fWH-26" value="" style="endArrow=none;html=1;rounded=0;exitX=0.668;exitY=0.973;exitDx=0;exitDy=0;entryX=0.656;entryY=0.003;entryDx=0;entryDy=0;entryPerimeter=0;exitPerimeter=0;startArrow=classic;startFill=1;endFill=0;" edge="1" parent="1">
          <mxGeometry width="50" height="50" relative="1" as="geometry">
            <mxPoint x="492" y="83" as="sourcePoint" />
            <mxPoint x="491" y="260" as="targetPoint" />
          </mxGeometry>
        </mxCell>
        <mxCell id="OTJZAKSeOe8hlKdK6fWH-27" value="Response" style="edgeLabel;html=1;align=center;verticalAlign=middle;resizable=0;points=[];rotation=90;" vertex="1" connectable="0" parent="OTJZAKSeOe8hlKdK6fWH-26">
          <mxGeometry x="0.0184" relative="1" as="geometry">
            <mxPoint y="-3" as="offset" />
          </mxGeometry>
        </mxCell>
        <mxCell id="OTJZAKSeOe8hlKdK6fWH-29" value="" style="endArrow=classic;html=1;rounded=0;exitX=0.75;exitY=1;exitDx=0;exitDy=0;entryX=0.788;entryY=0.462;entryDx=0;entryDy=0;entryPerimeter=0;" edge="1" parent="1">
          <mxGeometry width="50" height="50" relative="1" as="geometry">
            <mxPoint x="560.3299999999999" y="291.69" as="sourcePoint" />
            <mxPoint x="759.8" y="291.6800000000003" as="targetPoint" />
          </mxGeometry>
        </mxCell>
        <mxCell id="OTJZAKSeOe8hlKdK6fWH-30" value="Request" style="edgeLabel;html=1;align=center;verticalAlign=middle;resizable=0;points=[];" vertex="1" connectable="0" parent="OTJZAKSeOe8hlKdK6fWH-29">
          <mxGeometry x="0.1169" y="-3" relative="1" as="geometry">
            <mxPoint x="-13" y="-2" as="offset" />
          </mxGeometry>
        </mxCell>
        <mxCell id="OTJZAKSeOe8hlKdK6fWH-31" value="" style="endArrow=none;html=1;rounded=0;exitX=0.75;exitY=1;exitDx=0;exitDy=0;entryX=0.788;entryY=0.462;entryDx=0;entryDy=0;entryPerimeter=0;startArrow=classic;startFill=1;endFill=0;" edge="1" parent="1">
          <mxGeometry width="50" height="50" relative="1" as="geometry">
            <mxPoint x="560.53" y="310.01" as="sourcePoint" />
            <mxPoint x="760" y="310.0000000000003" as="targetPoint" />
          </mxGeometry>
        </mxCell>
        <mxCell id="OTJZAKSeOe8hlKdK6fWH-32" value="Response" style="edgeLabel;html=1;align=center;verticalAlign=middle;resizable=0;points=[];" vertex="1" connectable="0" parent="OTJZAKSeOe8hlKdK6fWH-31">
          <mxGeometry x="0.1169" y="-3" relative="1" as="geometry">
            <mxPoint x="-13" y="-2" as="offset" />
          </mxGeometry>
        </mxCell>
        <mxCell id="OTJZAKSeOe8hlKdK6fWH-33" value="" style="rounded=0;whiteSpace=wrap;html=1;dashed=1;dashPattern=8 8;strokeColor=#fa0505;" vertex="1" parent="1">
          <mxGeometry x="400" y="470" width="200" height="150" as="geometry" />
        </mxCell>
        <mxCell id="OTJZAKSeOe8hlKdK6fWH-34" value="Active Directory" style="ellipse;whiteSpace=wrap;html=1;" vertex="1" parent="1">
          <mxGeometry x="440" y="505" width="120" height="80" as="geometry" />
        </mxCell>
        <mxCell id="OTJZAKSeOe8hlKdK6fWH-35" value="" style="endArrow=classic;html=1;rounded=0;exitX=0.582;exitY=1.028;exitDx=0;exitDy=0;entryX=0.581;entryY=0.027;entryDx=0;entryDy=0;entryPerimeter=0;exitPerimeter=0;" edge="1" parent="1" source="OTJZAKSeOe8hlKdK6fWH-10" target="OTJZAKSeOe8hlKdK6fWH-34">
          <mxGeometry width="50" height="50" relative="1" as="geometry">
            <mxPoint x="510.32" y="345" as="sourcePoint" />
            <mxPoint x="509.9949999999999" y="396.31" as="targetPoint" />
          </mxGeometry>
        </mxCell>
        <mxCell id="OTJZAKSeOe8hlKdK6fWH-36" value="Login Request&amp;nbsp;" style="edgeLabel;html=1;align=center;verticalAlign=middle;resizable=0;points=[];rotation=90;" vertex="1" connectable="0" parent="OTJZAKSeOe8hlKdK6fWH-35">
          <mxGeometry x="-0.2535" y="1" relative="1" as="geometry">
            <mxPoint x="-2" y="7" as="offset" />
          </mxGeometry>
        </mxCell>
        <mxCell id="OTJZAKSeOe8hlKdK6fWH-37" value="" style="endArrow=none;html=1;rounded=0;exitX=0.582;exitY=1.028;exitDx=0;exitDy=0;entryX=0.581;entryY=0.027;entryDx=0;entryDy=0;entryPerimeter=0;exitPerimeter=0;startArrow=classic;startFill=1;endFill=0;" edge="1" parent="1">
          <mxGeometry width="50" height="50" relative="1" as="geometry">
            <mxPoint x="493" y="342" as="sourcePoint" />
            <mxPoint x="493" y="507" as="targetPoint" />
          </mxGeometry>
        </mxCell>
        <mxCell id="OTJZAKSeOe8hlKdK6fWH-38" value="Response of Login" style="edgeLabel;html=1;align=center;verticalAlign=middle;resizable=0;points=[];rotation=90;" vertex="1" connectable="0" parent="OTJZAKSeOe8hlKdK6fWH-37">
          <mxGeometry x="-0.2535" y="1" relative="1" as="geometry">
            <mxPoint x="-1" y="4" as="offset" />
          </mxGeometry>
        </mxCell>
        <mxCell id="OTJZAKSeOe8hlKdK6fWH-39" value="" style="rounded=0;whiteSpace=wrap;html=1;dashed=1;dashPattern=8 8;strokeColor=#fa0505;" vertex="1" parent="1">
          <mxGeometry x="725" y="470" width="200" height="150" as="geometry" />
        </mxCell>
        <mxCell id="OTJZAKSeOe8hlKdK6fWH-40" value="Database Server" style="ellipse;whiteSpace=wrap;html=1;" vertex="1" parent="1">
          <mxGeometry x="765" y="505" width="120" height="80" as="geometry" />
        </mxCell>
        <mxCell id="OTJZAKSeOe8hlKdK6fWH-41" value="" style="endArrow=classic;html=1;rounded=0;exitX=0.75;exitY=1;exitDx=0;exitDy=0;entryX=0.625;entryY=0.038;entryDx=0;entryDy=0;entryPerimeter=0;" edge="1" parent="1" target="OTJZAKSeOe8hlKdK6fWH-40">
          <mxGeometry width="50" height="50" relative="1" as="geometry">
            <mxPoint x="840.32" y="345" as="sourcePoint" />
            <mxPoint x="840" y="500" as="targetPoint" />
          </mxGeometry>
        </mxCell>
        <mxCell id="OTJZAKSeOe8hlKdK6fWH-43" value="Query to store Data" style="edgeLabel;html=1;align=center;verticalAlign=middle;resizable=0;points=[];rotation=90;" vertex="1" connectable="0" parent="OTJZAKSeOe8hlKdK6fWH-41">
          <mxGeometry x="0.0503" relative="1" as="geometry">
            <mxPoint y="-4" as="offset" />
          </mxGeometry>
        </mxCell>
        <mxCell id="OTJZAKSeOe8hlKdK6fWH-42" value="" style="endArrow=classic;html=1;rounded=0;exitX=0.75;exitY=1;exitDx=0;exitDy=0;entryX=0.625;entryY=0.038;entryDx=0;entryDy=0;entryPerimeter=0;" edge="1" parent="1">
          <mxGeometry width="50" height="50" relative="1" as="geometry">
            <mxPoint x="815.32" y="345" as="sourcePoint" />
            <mxPoint x="815" y="508" as="targetPoint" />
          </mxGeometry>
        </mxCell>
        <mxCell id="OTJZAKSeOe8hlKdK6fWH-44" value="Retrieval Query Response&amp;nbsp;" style="edgeLabel;html=1;align=center;verticalAlign=middle;resizable=0;points=[];rotation=90;" vertex="1" connectable="0" parent="OTJZAKSeOe8hlKdK6fWH-42">
          <mxGeometry x="0.2452" y="-2" relative="1" as="geometry">
            <mxPoint x="4" y="-25" as="offset" />
          </mxGeometry>
        </mxCell>
      </root>
    </mxGraphModel>
  </diagram>
</mxfile>
